<svg width="9" height="10" viewBox="0 0 9 10" fill="none" xmlns="http://www.w3.org/2000/svg">
<path d="M8.33333 1.66667H6.25V0.833333C6.25 0.61232 6.1622 0.400358 6.00592 0.244078C5.84964 0.0877974 5.63768 0 5.41667 0L2.91667 0C2.69565 0 2.48369 0.0877974 2.32741 0.244078C2.17113 0.400358 2.08333 0.61232 2.08333 0.833333V1.66667H0V2.5H0.833333V8.75C0.833333 9.08152 0.965029 9.39946 1.19945 9.63388C1.43387 9.8683 1.75181 10 2.08333 10H6.25C6.58152 10 6.89946 9.8683 7.13388 9.63388C7.3683 9.39946 7.5 9.08152 7.5 8.75V2.5H8.33333V1.66667ZM2.91667 0.833333H5.41667V1.66667H2.91667V0.833333ZM6.66667 8.75C6.66667 8.86051 6.62277 8.96649 6.54463 9.04463C6.46649 9.12277 6.36051 9.16667 6.25 9.16667H2.08333C1.97283 9.16667 1.86685 9.12277 1.78871 9.04463C1.71057 8.96649 1.66667 8.86051 1.66667 8.75V2.5H6.66667V8.75Z" fill="#696A73"/>
<path d="M3.75033 4.16675H2.91699V7.50008H3.75033V4.16675Z" fill="#696A73"/>
<path d="M5.41634 4.16675H4.58301V7.50008H5.41634V4.16675Z" fill="#696A73"/>
</svg>
