
<svg width="113" height="26" viewBox="0 0 113 26" fill="none" xmlns="http://www.w3.org/2000/svg">
<path fill-rule="evenodd" clip-rule="evenodd" d="M19.0457 18.5177L18.5177 19.0457C17.2639 20.2995 16.365 21.1971 15.5976 21.8287C14.8401 22.4521 14.2772 22.7585 13.7165 22.886C13.071 23.0328 12.4009 23.0328 11.7554 22.886C11.1947 22.7585 10.6318 22.4521 9.8743 21.8287C9.10687 21.1971 8.20795 20.2995 6.95416 19.0457C5.70037 17.7919 4.80274 16.893 4.17117 16.1256C3.54777 15.3681 3.24138 14.8052 3.11384 14.2444C2.96705 13.599 2.96705 12.9288 3.11384 12.2834C3.24138 11.7226 3.54777 11.1598 4.17118 10.4023C4.80274 9.63485 5.70037 8.73592 6.95416 7.48213L7.48218 6.95412C8.73597 5.70032 9.63489 4.80269 10.4023 4.17113C11.1598 3.54773 11.7227 3.24133 12.2834 3.1138C12.9289 2.967 13.599 2.967 14.2445 3.1138C14.8052 3.24133 15.3681 3.54773 16.1256 4.17113C16.893 4.80269 17.792 5.70032 19.0457 6.95411C20.2995 8.2079 21.1972 9.10683 21.8287 9.87425C22.4521 10.6318 22.7585 11.1946 22.8861 11.7554C23.0329 12.4008 23.0329 13.071 22.8861 13.7164C22.7585 14.2772 22.4521 14.84 21.8287 15.5975C21.1972 16.365 20.2995 17.2639 19.0457 18.5177ZM2.30549 12.0995C2.64143 10.6225 3.88361 9.38031 6.36797 6.89594L6.89599 6.36793C9.38036 3.88356 10.6225 2.64138 12.0996 2.30544C12.8661 2.13112 13.6619 2.13112 14.4283 2.30544C15.9054 2.64138 17.1476 3.88356 19.6319 6.36792C22.1163 8.85229 23.3585 10.0945 23.6944 11.5715C23.8687 12.338 23.8687 13.1338 23.6944 13.9003C23.3585 15.3773 22.1163 16.6195 19.6319 19.1039L19.1039 19.6319C16.6196 22.1163 15.3774 23.3584 13.9003 23.6944C13.1339 23.8687 12.338 23.8687 11.5716 23.6944C10.0945 23.3584 8.85234 22.1163 6.36797 19.6319C3.88361 17.1475 2.64142 15.9053 2.30549 14.4283C2.13117 13.6618 2.13117 12.866 2.30549 12.0995Z" fill="#E7C057"/>
<path d="M13.236 7.86423C13.1331 7.66451 12.8476 7.66451 12.7447 7.86423L12.1438 9.03075C11.4853 10.309 10.4444 11.3499 9.16616 12.0084L7.99964 12.6093C7.79992 12.7122 7.79992 12.9977 7.99964 13.1006L9.16616 13.7015C10.4444 14.36 11.4853 15.4009 12.1438 16.6791L12.7447 17.8457C12.8476 18.0454 13.1331 18.0454 13.236 17.8457L13.8369 16.6791C14.4954 15.4009 15.5363 14.36 16.8146 13.7015L17.9811 13.1006C18.1808 12.9977 18.1808 12.7122 17.9811 12.6093L16.8146 12.0084C15.5363 11.3499 14.4954 10.309 13.8369 9.03075L13.236 7.86423Z" fill="#E7C057"/>
<path d="M38.7793 10.2531C41.3803 10.2531 42.4514 11.9973 42.4514 14.3536C42.4514 14.5678 42.4361 14.8585 42.4208 15.1033H36.8208C36.9585 16.5875 37.6164 17.123 38.7793 17.123C39.7126 17.123 40.2634 16.7711 40.4776 16.1131H42.3137C42.0077 17.7656 40.7377 18.7142 38.7181 18.7142C36.1935 18.7142 34.893 17.276 34.893 14.5219C34.893 11.8596 36.1323 10.2531 38.7793 10.2531ZM36.8361 13.6498H40.5388C40.4011 12.3493 39.7279 11.8443 38.7028 11.8443C37.6164 11.8443 36.9738 12.3034 36.8361 13.6498ZM46.7734 7.11653C47.1712 7.11653 47.4772 7.13183 47.8138 7.19303V8.73836C46.3755 8.53946 46.0083 8.96787 46.0083 9.87059V10.4979H47.6608V12.0279H46.0083V18.5H44.157V12.0279H43.239V10.4979H44.157V9.97769C44.157 9.73289 44.157 9.54928 44.1723 9.25858C44.2641 7.98865 44.9985 7.11653 46.7734 7.11653ZM51.9283 7.11653C52.3261 7.11653 52.6321 7.13183 52.9687 7.19303V8.73836C51.5305 8.53946 51.1632 8.96787 51.1632 9.87059V10.4979H52.8157V12.0279H51.1632V18.5H49.3119V12.0279H48.3939V10.4979H49.3119V9.97769C49.3119 9.73289 49.3119 9.54928 49.3272 9.25858C49.419 7.98865 50.1534 7.11653 51.9283 7.11653ZM57.4117 10.2531C60.0127 10.2531 61.0837 11.9973 61.0837 14.3536C61.0837 14.5678 61.0684 14.8585 61.0531 15.1033H55.4532C55.5909 16.5875 56.2488 17.123 57.4117 17.123C58.345 17.123 58.8958 16.7711 59.11 16.1131H60.946C60.64 17.7656 59.3701 18.7142 57.3505 18.7142C54.8259 18.7142 53.5254 17.276 53.5254 14.5219C53.5254 11.8596 54.7647 10.2531 57.4117 10.2531ZM55.4685 13.6498H59.1712C59.0335 12.3493 58.3603 11.8443 57.3352 11.8443C56.2488 11.8443 55.6062 12.3034 55.4685 13.6498ZM69.9336 10.4673L67.0265 13.6039L70.0866 18.5H67.868L65.5577 14.7667L64.4101 15.9142V18.5H62.5588V7.33073H64.4101V14.2771L67.9139 10.4673H69.9336ZM73.6734 15.8224C73.6734 17.0618 73.9335 17.1536 75.4177 17.0618V18.5765C74.9587 18.6377 74.5609 18.6683 73.9335 18.6683C72.4341 18.6683 71.9292 18.0563 71.8527 17.0771C71.8221 16.6487 71.8221 16.3273 71.8221 15.8683V12.0279H70.6899V10.4979H71.8221V8.11105H73.6734V10.4979H75.4789V12.0279H73.6734V15.8224ZM77.6846 18.7142C76.9655 18.7142 76.3841 18.1328 76.3841 17.4137C76.3841 16.6946 76.9655 16.1131 77.6846 16.1131C78.4038 16.1131 78.9852 16.6946 78.9852 17.4137C78.9852 18.1328 78.4038 18.7142 77.6846 18.7142ZM82.3695 15.8224C82.3695 17.0618 82.6296 17.1536 84.1138 17.0618V18.5765C83.6548 18.6377 83.257 18.6683 82.6296 18.6683C81.1302 18.6683 80.6253 18.0563 80.5488 17.0771C80.5182 16.6487 80.5182 16.3273 80.5182 15.8683V12.0279H79.386V10.4979H80.5182V8.11105H82.3695V10.4979H84.175V12.0279H82.3695V15.8224ZM86.9953 14.476C86.9953 16.4191 87.7756 17.123 89.0914 17.123C90.4073 17.123 91.1723 16.4191 91.1723 14.476C91.1723 12.5635 90.4073 11.8443 89.0914 11.8443C87.7756 11.8443 86.9953 12.5635 86.9953 14.476ZM85.0674 14.476C85.0674 11.676 86.5057 10.2531 89.0914 10.2531C91.6772 10.2531 93.1154 11.676 93.1154 14.476C93.1154 17.2913 91.6619 18.7142 89.0914 18.7142C86.5057 18.7142 85.0674 17.2913 85.0674 14.476ZM102.273 7.33073V18.5H100.575L100.468 17.1995C100.085 18.4235 99.0143 18.7142 97.7903 18.7142C95.3575 18.7142 94.2865 17.0618 94.2865 14.5066C94.2865 11.7525 95.6023 10.2531 97.9127 10.2531C98.9531 10.2531 99.9476 10.4979 100.422 11.4465V7.33073H102.273ZM96.3061 14.5219C96.3061 16.0213 96.9029 17.123 98.3717 17.123C99.5498 17.123 100.422 16.4651 100.422 14.5372V14.2924C100.422 12.3952 99.3968 11.8443 98.4176 11.8443C96.9947 11.8443 96.3061 12.8389 96.3061 14.5219ZM105.598 14.476C105.598 16.4191 106.378 17.123 107.694 17.123C109.01 17.123 109.775 16.4191 109.775 14.476C109.775 12.5635 109.01 11.8443 107.694 11.8443C106.378 11.8443 105.598 12.5635 105.598 14.476ZM103.67 14.476C103.67 11.676 105.108 10.2531 107.694 10.2531C110.28 10.2531 111.718 11.676 111.718 14.476C111.718 17.2913 110.264 18.7142 107.694 18.7142C105.108 18.7142 103.67 17.2913 103.67 14.476Z" fill="white"/>
</svg>
